<svg width="21" height="21" viewBox="0 0 21 21" fill="none" xmlns="http://www.w3.org/2000/svg">
<g clip-path="url(#clip0_958_2560)">
<path d="M7.64286 4.875C7.64286 3.49609 8.92411 2.375 10.5 2.375C12.0759 2.375 13.3571 3.49609 13.3571 4.875V6.75H7.64286V4.875ZM5.5 6.75H2.64286C1.45982 6.75 0.5 7.58984 0.5 8.625V16.75C0.5 18.8203 2.41964 20.5 4.78571 20.5H16.2143C18.5804 20.5 20.5 18.8203 20.5 16.75V8.625C20.5 7.58984 19.5402 6.75 18.3571 6.75H15.5V4.875C15.5 2.45703 13.2634 0.5 10.5 0.5C7.73661 0.5 5.5 2.45703 5.5 4.875V6.75ZM6.57143 10.5C5.97768 10.5 5.5 10.082 5.5 9.5625C5.5 9.04297 5.97768 8.625 6.57143 8.625C7.16518 8.625 7.64286 9.04297 7.64286 9.5625C7.64286 10.082 7.16518 10.5 6.57143 10.5ZM15.5 9.5625C15.5 10.082 15.0223 10.5 14.4286 10.5C13.8348 10.5 13.3571 10.082 13.3571 9.5625C13.3571 9.04297 13.8348 8.625 14.4286 8.625C15.0223 8.625 15.5 9.04297 15.5 9.5625Z" fill="black"/>
</g>
<defs>
<clipPath id="clip0_958_2560">
<rect width="20" height="20" fill="white" transform="translate(0.5 0.5)"/>
</clipPath>
</defs>
</svg>
