<svg width="25" height="25" viewBox="0 0 25 25" fill="none" xmlns="http://www.w3.org/2000/svg">
<path d="M19.5 11.2499V5.8999H14.5V7.8999H17.5V10.5499L14.02 14.8999H10.5V9.8999H2.5V16.8999H4.5C4.5 18.5599 5.84 19.8999 7.5 19.8999C9.16 19.8999 10.5 18.5599 10.5 16.8999H14.98L19.5 11.2499ZM7.5 17.8999C6.95 17.8999 6.5 17.4499 6.5 16.8999H8.5C8.5 17.4499 8.05 17.8999 7.5 17.8999Z" fill="#232229"/>
<path d="M5.5 6.8999H10.5V8.8999H5.5V6.8999ZM19.5 13.8999C17.84 13.8999 16.5 15.2399 16.5 16.8999C16.5 18.5599 17.84 19.8999 19.5 19.8999C21.16 19.8999 22.5 18.5599 22.5 16.8999C22.5 15.2399 21.16 13.8999 19.5 13.8999ZM19.5 17.8999C18.95 17.8999 18.5 17.4499 18.5 16.8999C18.5 16.3499 18.95 15.8999 19.5 15.8999C20.05 15.8999 20.5 16.3499 20.5 16.8999C20.5 17.4499 20.05 17.8999 19.5 17.8999Z" fill="#232229"/>
</svg>
