<svg width="21" height="21" viewBox="0 0 21 21" fill="none" xmlns="http://www.w3.org/2000/svg">
<path d="M18.5 7.10017C18.5008 5.84877 18.0323 4.64255 17.1871 3.71975C16.3419 2.79694 15.1813 2.22464 13.9346 2.11586C12.688 2.00708 11.4458 2.36974 10.4535 3.13221C9.46125 3.89469 8.79094 5.00154 8.57501 6.23417C8.14801 7.72717 7.74201 8.51617 7.53001 8.86417L5.64601 10.7462C5.5759 10.8161 5.52814 10.9053 5.50877 11.0024C5.4894 11.0995 5.49931 11.2002 5.53723 11.2916C5.57514 11.3831 5.63937 11.4613 5.72176 11.5162C5.80415 11.5711 5.90099 11.6003 6.00001 11.6002H6.38901L4.38601 13.6032C3.98311 13.6262 3.59659 13.7705 3.27724 14.0172C2.95788 14.2639 2.72063 14.6015 2.59665 14.9855C2.47268 15.3695 2.46778 15.7821 2.5826 16.169C2.69743 16.5559 2.9266 16.8989 3.24001 17.1532C3.31601 17.2152 3.38501 17.2842 3.44701 17.3602C3.70188 17.6741 4.04592 17.9034 4.43375 18.0178C4.82158 18.1322 5.23499 18.1264 5.61944 18.0011C6.0039 17.8758 6.34134 17.6369 6.58727 17.3159C6.8332 16.995 6.97606 16.607 6.99701 16.2032L9.00001 14.2022V14.6012C9.00003 14.7 9.02933 14.7966 9.08421 14.8788C9.13909 14.9609 9.21709 15.025 9.30836 15.0629C9.39962 15.1007 9.50007 15.1107 9.59701 15.0916C9.69394 15.0724 9.78303 15.0249 9.85301 14.9552L11.725 13.0832C12.07 12.8712 12.879 12.4522 14.434 12.0132C14.67 11.9692 14.901 11.9082 15.124 11.8312C15.255 11.7972 15.38 11.7512 15.494 11.6872C16.3874 11.2985 17.1478 10.6574 17.6818 9.84246C18.2159 9.02758 18.5002 8.07445 18.5 7.10017ZM7.80301 11.6002H9.00001V12.7872L6.21601 15.5712C6.14701 15.6408 6.09242 15.7234 6.05535 15.8142C6.01829 15.9049 5.99948 16.0021 6.00001 16.1002C6.00011 16.3069 5.93614 16.5086 5.8169 16.6775C5.69766 16.8463 5.52901 16.9741 5.33416 17.0432C5.13931 17.1123 4.92784 17.1193 4.72886 17.0632C4.52987 17.0071 4.35315 16.8908 4.22301 16.7302C4.11776 16.6007 3.99947 16.4824 3.87001 16.3772C3.70938 16.247 3.59303 16.0703 3.53697 15.8713C3.48092 15.6723 3.48791 15.4609 3.55699 15.266C3.62607 15.0712 3.75384 14.9025 3.92272 14.7833C4.0916 14.664 4.29328 14.6001 4.50001 14.6002C4.59512 14.6006 4.68938 14.5822 4.7774 14.5462C4.86543 14.5102 4.94549 14.4572 5.01301 14.3902L7.80301 11.6002Z" fill="black"/>
</svg>
