<svg width="33" height="33" viewBox="0 0 33 33" fill="none" xmlns="http://www.w3.org/2000/svg">
<path d="M16.8867 6.25623C16.6215 6.25623 16.3672 6.36158 16.1796 6.54912C15.9921 6.73666 15.8867 6.99101 15.8867 7.25623V18.9862L12.8367 14.9862C12.7598 14.8753 12.6611 14.781 12.5468 14.7092C12.4324 14.6374 12.3047 14.5895 12.1713 14.5684C12.0379 14.5473 11.9017 14.5534 11.7707 14.5864C11.6398 14.6194 11.5169 14.6785 11.4094 14.7603C11.3019 14.8421 11.2121 14.9448 11.1455 15.0622C11.0788 15.1796 11.0365 15.3093 11.0213 15.4435C11.0061 15.5777 11.0183 15.7136 11.057 15.8429C11.0957 15.9723 11.1603 16.0925 11.2467 16.1962L16.0867 22.5562C16.0867 22.5562 16.0867 22.5562 16.1367 22.5562C16.2067 22.6273 16.2837 22.691 16.3667 22.7462L16.4667 22.8162C16.5984 22.8771 16.7417 22.9087 16.8867 22.9087C17.0318 22.9087 17.1751 22.8771 17.3067 22.8162L17.4067 22.7462C17.4897 22.691 17.5668 22.6273 17.6367 22.5562C17.6367 22.5562 17.6367 22.5562 17.6867 22.5562L22.5267 16.1962C22.6735 15.9846 22.733 15.7244 22.6927 15.47C22.6524 15.2156 22.5155 14.9866 22.3106 14.8306C22.1056 14.6746 21.8484 14.6037 21.5924 14.6327C21.3365 14.6617 21.1016 14.7883 20.9367 14.9862L17.8867 18.9862V7.25623C17.8867 6.99101 17.7814 6.73666 17.5938 6.54912C17.4063 6.36158 17.1519 6.25623 16.8867 6.25623Z" fill="white"/>
<path d="M9.04672 25.2562C9.04672 25.5214 9.15208 25.7758 9.33962 25.9633C9.52715 26.1509 9.78151 26.2562 10.0467 26.2562H23.7267C23.9919 26.2562 24.2463 26.1509 24.4338 25.9633C24.6214 25.7758 24.7267 25.5214 24.7267 25.2562C24.7267 24.991 24.6214 24.7367 24.4338 24.5491C24.2463 24.3616 23.9919 24.2562 23.7267 24.2562H10.0467C9.78151 24.2562 9.52715 24.3616 9.33962 24.5491C9.15208 24.7367 9.04672 24.991 9.04672 25.2562Z" fill="white"/>
</svg>
