<svg width="33" height="32" viewBox="0 0 33 32" fill="none" xmlns="http://www.w3.org/2000/svg">
<path d="M24.3925 25C24.5241 25.0008 24.6546 24.9756 24.7764 24.9258C24.8982 24.876 25.0091 24.8027 25.1025 24.71C25.1962 24.6171 25.2706 24.5065 25.3214 24.3846C25.3722 24.2627 25.3983 24.132 25.3983 24C25.3983 23.868 25.3722 23.7373 25.3214 23.6154C25.2706 23.4936 25.1962 23.383 25.1025 23.29L21.7825 20C23.0591 18.3693 23.6653 16.3129 23.4773 14.2505C23.2893 12.188 22.3214 10.2751 20.771 8.90204C19.2206 7.529 17.2046 6.7994 15.1346 6.86213C13.0646 6.92487 11.0965 7.77522 9.63211 9.23962C8.16771 10.704 7.31736 12.6721 7.25462 14.7421C7.19188 16.8121 7.92149 18.8281 9.29452 20.3785C10.6676 21.9289 12.5805 22.8969 14.6429 23.0848C16.7054 23.2728 18.7618 22.6666 20.3925 21.39L23.7425 24.74C23.9208 24.9022 24.1516 24.9945 24.3925 25ZM9.3925 15C9.39654 13.7974 9.75774 12.623 10.4303 11.626C11.1028 10.629 12.0563 9.85422 13.1699 9.4C14.2835 8.94578 15.5069 8.83258 16.6849 9.07478C17.8629 9.31698 18.9424 9.90365 19.7864 10.7603C20.6305 11.6171 21.201 12.7052 21.4256 13.8867C21.6503 15.0681 21.5189 16.2897 21.0481 17.3964C20.5774 18.5031 19.7885 19.445 18.7816 20.1026C17.7746 20.7602 16.5951 21.1039 15.3925 21.09C13.7913 21.0716 12.2623 20.4212 11.1385 19.2805C10.0147 18.1398 9.38712 16.6013 9.3925 15Z" fill="white"/>
</svg>
